<svg width="26" height="20" viewBox="0 0 26 20" fill="none" xmlns="http://www.w3.org/2000/svg">
<g clip-path="url(#clip0_962_6934)">
<path d="M10.7237 3.53303C11.4694 3.39876 12.2328 3.33164 12.9987 3.33303C20.582 3.33303 24.9154 9.99969 24.9154 9.99969C24.2578 10.946 23.4735 11.837 22.5754 12.658M15.2954 11.7664C14.9978 12.012 14.639 12.209 14.2404 12.3456C13.8417 12.4823 13.4113 12.5557 12.975 12.5617C12.5386 12.5676 12.1051 12.5058 11.7004 12.3801C11.2958 12.2544 10.9281 12.0672 10.6195 11.8298C10.3109 11.5924 10.0676 11.3096 9.90417 10.9984C9.74071 10.6871 9.66043 10.3536 9.66813 10.018C9.67583 9.68228 9.77135 9.35123 9.94898 9.04457C10.1266 8.7379 10.3827 8.4619 10.702 8.23303M19.4337 14.9497C17.5818 16.0355 15.3269 16.6371 12.9987 16.6664C5.41536 16.6664 1.08203 9.99969 1.08203 9.99969C2.42958 8.06794 4.29859 6.3802 6.5637 5.0497L19.4337 14.9497Z" stroke="#A6A6A6" stroke-width="2" stroke-linecap="round" stroke-linejoin="round"/>
<path d="M1.08203 0.833008L24.9154 19.1663" stroke="#A6A6A6" stroke-width="2" stroke-linecap="round" stroke-linejoin="round"/>
</g>
<defs>
<clipPath id="clip0_962_6934">
<rect width="26" height="20" fill="white"/>
</clipPath>
</defs>
</svg>
