<svg width="80" height="34" viewBox="0 0 80 34" fill="none" xmlns="http://www.w3.org/2000/svg">
<rect width="80" height="34" rx="8" fill="#BFBFBF"/>
<path fill-rule="evenodd" clip-rule="evenodd" d="M45.01 6.34542C45.0053 6.23733 44.9773 6.13154 44.9279 6.0353C44.8784 5.93906 44.8088 5.85465 44.7237 5.78787C44.6385 5.72109 44.54 5.67351 44.4348 5.6484C44.3295 5.6233 44.2201 5.62126 44.114 5.64242C43.614 5.74242 41.982 6.14842 40.694 7.43642C40.036 8.09442 39.672 8.92442 39.474 9.68042C39.3791 10.0486 39.3142 10.4238 39.28 10.8024C39.1991 10.7674 39.1181 10.7328 39.037 10.6984C38.344 10.4024 37.447 10.0584 36.427 10.0584C35.335 10.0584 33.785 10.5024 32.505 11.7584C31.207 13.0324 30.25 15.0764 30.25 18.1584C30.25 19.8904 31.116 22.4084 32.283 24.4534C32.873 25.4864 33.568 26.4484 34.318 27.1574C35.047 27.8454 35.935 28.3954 36.903 28.3704C37.623 28.3674 38.353 28.0844 38.92 27.8644L38.97 27.8444C39.624 27.5914 40.09 27.4204 40.481 27.4204C40.855 27.4204 41.325 27.5914 41.989 27.8464L42.038 27.8644C42.614 28.0854 43.357 28.3704 44.07 28.3704C44.609 28.3704 45.232 28.0824 45.778 27.7434C46.4342 27.3259 47.0373 26.8303 47.574 26.2674C48.711 25.0854 49.791 23.3964 49.749 21.5884C49.7458 21.4496 49.704 21.3143 49.6285 21.1978C49.5529 21.0813 49.4465 20.988 49.321 20.9284C48.7925 20.6595 48.3206 20.2915 47.931 19.8444C47.458 19.3014 47.109 18.6324 47.087 17.8564C47.063 16.8772 47.2987 15.9091 47.77 15.0504C48.192 14.2804 48.67 13.8404 48.892 13.7234C48.9869 13.6736 49.07 13.6041 49.1358 13.5195C49.2015 13.4349 49.2484 13.3372 49.2732 13.233C49.298 13.1288 49.3002 13.0204 49.2797 12.9153C49.2591 12.8101 49.2163 12.7106 49.154 12.6234C48.812 12.1434 48.162 11.5114 47.396 11.0024C46.639 10.4984 45.652 10.0374 44.642 10.0574C44.465 10.0614 44.292 10.0744 44.122 10.0944C44.492 9.54442 44.708 8.86242 44.834 8.26442C44.9679 7.63389 45.0274 6.98981 45.011 6.34542M41.756 8.49642C42.297 7.95542 42.933 7.61342 43.46 7.40242C43.4363 7.58791 43.4053 7.77239 43.367 7.95542C43.236 8.57742 43.03 9.09742 42.777 9.39342C42.297 9.95242 41.653 10.5624 40.789 10.8034C40.817 10.5664 40.861 10.3134 40.927 10.0594C41.082 9.46442 41.347 8.90642 41.756 8.49642ZM44.673 11.5564C45.238 11.5464 45.915 11.8174 46.567 12.2514C46.911 12.4794 47.215 12.7314 47.457 12.9634C47.1 13.3214 46.749 13.7934 46.456 14.3294C45.8565 15.4218 45.5573 16.6537 45.589 17.8994C45.623 19.1194 46.173 20.1094 46.801 20.8294C47.261 21.3564 47.781 21.7634 48.231 22.0394C48.104 23.1344 47.407 24.2794 46.494 25.2274C46.0435 25.7006 45.5375 26.1176 44.987 26.4694C44.479 26.7854 44.163 26.8704 44.071 26.8704C43.671 26.8704 43.183 26.6964 42.527 26.4454L42.447 26.4154C41.883 26.1984 41.161 25.9214 40.482 25.9214C39.782 25.9214 39.064 26.2004 38.502 26.4184L38.43 26.4464C37.782 26.6964 37.303 26.8704 36.893 26.8704H36.87C36.494 26.8824 35.976 26.6584 35.35 26.0674C34.742 25.4924 34.133 24.6644 33.587 23.7094C32.483 21.7754 31.751 19.5224 31.751 18.1594C31.751 15.4024 32.596 13.7714 33.556 12.8294C34.534 11.8694 35.697 11.5574 36.429 11.5574C37.124 11.5574 37.782 11.7924 38.449 12.0774L38.719 12.1944C38.957 12.2974 39.204 12.4044 39.428 12.4894C39.74 12.6064 40.107 12.7184 40.482 12.7184C40.857 12.7184 41.228 12.6134 41.552 12.4984C41.793 12.4134 42.057 12.3044 42.312 12.1994L42.564 12.0954C43.257 11.8134 43.946 11.5724 44.673 11.5574" fill="black"/>
</svg>
