<svg width="80" height="35" viewBox="0 0 80 35" fill="none" xmlns="http://www.w3.org/2000/svg">
<rect width="80" height="34.4924" rx="8" fill="#BFBFBF"/>
<path d="M35.5 16C36.0304 16 36.5391 15.7893 36.9142 15.4142C37.2893 15.0391 37.5 14.5304 37.5 14C37.5 13.4696 37.2893 12.9609 36.9142 12.5858C36.5391 12.2107 36.0304 12 35.5 12H31V16H35.5ZM36.5 18H31V22H36.5C37.0304 22 37.5391 21.7893 37.9142 21.4142C38.2893 21.0391 38.5 20.5304 38.5 20C38.5 19.4696 38.2893 18.9609 37.9142 18.5858C37.5391 18.2107 37.0304 18 36.5 18ZM38.563 16.572C39.3125 17.0227 39.8937 17.7066 40.2175 18.5191C40.5413 19.3315 40.5899 20.2277 40.3559 21.0704C40.1218 21.9131 39.618 22.6559 38.9216 23.185C38.2252 23.7141 37.3746 24.0004 36.5 24H29V10H35.5C36.2617 9.99993 37.0075 10.2173 37.6498 10.6266C38.2922 11.0359 38.8043 11.6201 39.126 12.3105C39.4478 13.0008 39.5657 13.7687 39.4659 14.5238C39.3662 15.2789 39.0529 15.9898 38.563 16.573M43.5 11H49V12.5H43.5V11ZM51 19.5H43.5V19.75C43.4998 20.3677 43.7075 20.9676 44.0898 21.4528C44.4721 21.938 45.0066 22.2804 45.6073 22.4248C46.2079 22.5692 46.8396 22.5072 47.4007 22.2487C47.9617 21.9902 48.4194 21.5503 48.7 21H50.834C50.5293 22.1083 49.8333 23.0686 48.8748 23.703C47.9164 24.3374 46.7605 24.6029 45.6212 24.4503C44.482 24.2978 43.4367 23.7375 42.6789 22.8732C41.9212 22.009 41.5023 20.8994 41.5 19.75V18.25C41.5 16.9902 42.0004 15.782 42.8912 14.8912C43.782 14.0004 44.9902 13.5 46.25 13.5C47.5098 13.5 48.718 14.0004 49.6088 14.8912C50.4996 15.782 51 16.9902 51 18.25V19.5ZM48.896 17.5C48.7323 16.9245 48.3854 16.4181 47.9079 16.0575C47.4304 15.6969 46.8483 15.5018 46.25 15.5018C45.6517 15.5018 45.0696 15.6969 44.5921 16.0575C44.1146 16.4181 43.7677 16.9245 43.604 17.5H48.896Z" fill="black"/>
</svg>
