<svg width="80" height="34" viewBox="0 0 80 34" fill="none" xmlns="http://www.w3.org/2000/svg">
<rect width="80" height="34" rx="8" fill="#BFBFBF"/>
<path fill-rule="evenodd" clip-rule="evenodd" d="M40 10.8742C38.826 10.8746 37.6769 11.2122 36.6893 11.8471C35.7018 12.4819 34.9176 13.3872 34.4299 14.4551C33.9423 15.5231 33.7719 16.7086 33.9389 17.8707C34.1059 19.0327 34.6034 20.1222 35.372 21.0096C36.1407 21.8969 37.1482 22.5447 38.2745 22.8757C39.4009 23.2067 40.5986 23.2071 41.7251 22.8767C42.8517 22.5464 43.8596 21.8992 44.6287 21.0123C45.3979 20.1255 45.896 19.0362 46.0638 17.8742H40.875C40.6429 17.8742 40.4204 17.7821 40.2563 17.618C40.0922 17.4539 40 17.2313 40 16.9992C40 16.7672 40.0922 16.5446 40.2563 16.3805C40.4204 16.2164 40.6429 16.1242 40.875 16.1242H47C47.2321 16.1242 47.4546 16.2164 47.6187 16.3805C47.7828 16.5446 47.875 16.7672 47.875 16.9992C47.8752 18.8203 47.2443 20.585 46.0896 21.9932C44.935 23.4014 43.3281 24.3659 41.5423 24.7225C39.7566 25.0791 37.9025 24.8059 36.2955 23.9493C34.6886 23.0927 33.4282 21.7056 32.7289 20.0242C32.0295 18.3429 31.9345 16.4711 32.46 14.7276C32.9855 12.984 34.099 11.4765 35.6109 10.4616C37.1228 9.44663 38.9398 8.98705 40.7525 9.16104C42.5651 9.33504 44.2615 10.1319 45.5528 11.4159C45.7127 11.5804 45.8015 11.8012 45.8002 12.0307C45.7989 12.2602 45.7075 12.4799 45.5457 12.6426C45.3839 12.8054 45.1647 12.898 44.9352 12.9006C44.7058 12.9032 44.4845 12.8156 44.319 12.6566C43.7514 12.0904 43.0779 11.6416 42.3368 11.3358C41.5958 11.0299 40.8017 10.8731 40 10.8742Z" fill="black"/>
</svg>
