<svg width="24" height="20" viewBox="0 0 24 20" fill="none" xmlns="http://www.w3.org/2000/svg">
<path d="M3.78947 0.526367H20.2105C21.2156 0.526367 22.1794 0.925614 22.8901 1.63628C23.6008 2.34694 24 3.31081 24 4.31584V15.6843C24 16.6893 23.6008 17.6532 22.8901 18.3638C22.1794 19.0745 21.2156 19.4737 20.2105 19.4737H3.78947C2.78444 19.4737 1.82058 19.0745 1.10991 18.3638C0.399247 17.6532 0 16.6893 0 15.6843V4.31584C0 3.31081 0.399247 2.34694 1.10991 1.63628C1.82058 0.925614 2.78444 0.526367 3.78947 0.526367ZM3.78947 1.78953C3.15789 1.78953 2.60211 2.00426 2.17263 2.38321L12 8.73689L21.8274 2.38321C21.3979 2.00426 20.8421 1.78953 20.2105 1.78953H3.78947ZM12 10.2653L1.42737 3.40637C1.32632 3.68426 1.26316 4.00005 1.26316 4.31584V15.6843C1.26316 16.3543 1.52932 16.9969 2.0031 17.4706C2.47687 17.9444 3.11945 18.2106 3.78947 18.2106H20.2105C20.8805 18.2106 21.5231 17.9444 21.9969 17.4706C22.4707 16.9969 22.7368 16.3543 22.7368 15.6843V4.31584C22.7368 4.00005 22.6737 3.68426 22.5726 3.40637L12 10.2653Z" fill="#A6A6A6"/>
</svg>
